<?xml version="1.0" standalone="no"?>
      <!DOCTYPE svg PUBLIC "-//W3C//DTD SVG 1.1//EN"
       "http://www.w3.org/Graphics/SVG/1.1/DTD/svg11.dtd"> <svg xmlns:xlink="http://www.w3.org/1999/xlink" xmlns="http://www.w3.org/2000/svg" height="550" version="1.1" width="1805"  id="raphael-paper-2" style="overflow: hidden; -webkit-tap-highlight-color: rgba(0, 0, 0, 0); user-select: none; cursor: default; vertical-align: middle; position: relative; top: -0.171875px; background-color: rgb(255, 255, 255);"><defs><clipPath id="rr-41D86392-727E-484A-817E-91BDC728B08B"><rect x="15" y="53.8" width="1775" height="413.7" transform="matrix(1,0,0,1,0,0)"></rect></clipPath><clipPath id="rr-9D5E199D-4E05-4874-9DA7-001D34786741"><rect x="15" y="53.8" width="1775" height="413.7" transform="matrix(1,0,0,1,0,0)"></rect></clipPath><radialGradient id="rr-2-xr___169.85_902.5_260.65__rgba_105_195_156_1__0-rgba_105_195_156_1__100" r="169.85" cx="902.5" cy="260.65" fx="902.5" fy="260.65"><stop offset="0%" stop-color="#69c39c" stop-opacity="1"></stop><stop offset="100%" stop-color="#69c39c" stop-opacity="1"></stop></radialGradient><radialGradient id="rr-2-xr___169.85_902.5_260.65__rgba_0_59_48_1__0-rgba_0_59_48_1__100" r="169.85" cx="902.5" cy="260.65" fx="902.5" fy="260.65"><stop offset="0%" stop-color="#003b30" stop-opacity="1"></stop><stop offset="100%" stop-color="#003b30" stop-opacity="1"></stop></radialGradient><radialGradient id="rr-2-xr___169.85_902.5_260.65__rgba_0_68_204_1__0-rgba_0_68_204_1__100" r="169.85" cx="902.5" cy="260.65" fx="902.5" fy="260.65"><stop offset="0%" stop-color="#0044cc" stop-opacity="1"></stop><stop offset="100%" stop-color="#0044cc" stop-opacity="1"></stop></radialGradient><radialGradient id="rr-2-xr___169.85_902.5_260.65__rgba_255_152_0_1__0-rgba_255_152_0_1__100" r="169.85" cx="902.5" cy="260.65" fx="902.5" fy="260.65"><stop offset="0%" stop-color="#ff9800" stop-opacity="1"></stop><stop offset="100%" stop-color="#ff9800" stop-opacity="1"></stop></radialGradient><radialGradient id="rr-2-xr___169.85_902.5_260.65__rgba_240_185_11_1__0-rgba_240_185_11_1__100" r="169.85" cx="902.5" cy="260.65" fx="902.5" fy="260.65"><stop offset="0%" stop-color="#f0b90b" stop-opacity="1"></stop><stop offset="100%" stop-color="#f0b90b" stop-opacity="1"></stop></radialGradient><radialGradient id="rr-2-xr___169.85_902.5_260.65__rgba_60_120_194_1__0-rgba_60_120_194_1__100" r="169.85" cx="902.5" cy="260.65" fx="902.5" fy="260.65"><stop offset="0%" stop-color="#3c78c2" stop-opacity="1"></stop><stop offset="100%" stop-color="#3c78c2" stop-opacity="1"></stop></radialGradient><radialGradient id="rr-2-xr___169.85_902.5_260.65__rgba_66_156_166_1__0-rgba_66_156_166_1__100" r="169.85" cx="902.5" cy="260.65" fx="902.5" fy="260.65"><stop offset="0%" stop-color="#429ca6" stop-opacity="1"></stop><stop offset="100%" stop-color="#429ca6" stop-opacity="1"></stop></radialGradient><radialGradient id="rr-2-xr___169.85_902.5_260.65__rgba_0_51_153_1__0-rgba_0_51_153_1__100" r="169.85" cx="902.5" cy="260.65" fx="902.5" fy="260.65"><stop offset="0%" stop-color="#003399" stop-opacity="1"></stop><stop offset="100%" stop-color="#003399" stop-opacity="1"></stop></radialGradient><radialGradient id="rr-2-xr___169.85_902.5_260.65__rgba_5_24_57_1__0-rgba_5_24_57_1__100" r="169.85" cx="902.5" cy="260.65" fx="902.5" fy="260.65"><stop offset="0%" stop-color="#051839" stop-opacity="1"></stop><stop offset="100%" stop-color="#051839" stop-opacity="1"></stop></radialGradient><radialGradient id="rr-2-xr___169.85_902.5_260.65__rgba_191_215_249_1__0-rgba_191_215_249_1__100" r="169.85" cx="902.5" cy="260.65" fx="902.5" fy="260.65"><stop offset="0%" stop-color="#bfd7f9" stop-opacity="1"></stop><stop offset="100%" stop-color="#bfd7f9" stop-opacity="1"></stop></radialGradient><radialGradient id="rr-2-xr___169.85_902.5_260.65__rgba_0_150_136_1__0-rgba_0_150_136_1__100" r="169.85" cx="902.5" cy="260.65" fx="902.5" fy="260.65"><stop offset="0%" stop-color="#009688" stop-opacity="1"></stop><stop offset="100%" stop-color="#009688" stop-opacity="1"></stop></radialGradient><radialGradient id="rr-2-xr___169.85_902.5_260.65__rgba_30_175_255_1__0-rgba_30_175_255_1__100" r="169.85" cx="902.5" cy="260.65" fx="902.5" fy="260.65"><stop offset="0%" stop-color="#1eafff" stop-opacity="1"></stop><stop offset="100%" stop-color="#1eafff" stop-opacity="1"></stop></radialGradient><radialGradient id="rr-2-xr___169.85_902.5_260.65__rgba_200_16_46_1__0-rgba_200_16_46_1__100" r="169.85" cx="902.5" cy="260.65" fx="902.5" fy="260.65"><stop offset="0%" stop-color="#c8102e" stop-opacity="1"></stop><stop offset="100%" stop-color="#c8102e" stop-opacity="1"></stop></radialGradient><radialGradient id="rr-2-xr___169.85_902.5_260.65__rgba_46_167_223_1__0-rgba_46_167_223_1__100" r="169.85" cx="902.5" cy="260.65" fx="902.5" fy="260.65"><stop offset="0%" stop-color="#2ea7df" stop-opacity="1"></stop><stop offset="100%" stop-color="#2ea7df" stop-opacity="1"></stop></radialGradient><radialGradient id="rr-2-xr___169.85_902.5_260.65__rgba_229_138_46_1__0-rgba_229_138_46_1__100" r="169.85" cx="902.5" cy="260.65" fx="902.5" fy="260.65"><stop offset="0%" stop-color="#e58a2e" stop-opacity="1"></stop><stop offset="100%" stop-color="#e58a2e" stop-opacity="1"></stop></radialGradient><radialGradient id="rr-2-xr___169.85_902.5_260.65__rgba_140_70_255_1__0-rgba_140_70_255_1__100" r="169.85" cx="902.5" cy="260.65" fx="902.5" fy="260.65"><stop offset="0%" stop-color="#8c46ff" stop-opacity="1"></stop><stop offset="100%" stop-color="#8c46ff" stop-opacity="1"></stop></radialGradient><radialGradient id="rr-2-xr___169.85_902.5_260.65__rgba_217_237_247_1__0-rgba_217_237_247_1__100" r="169.85" cx="902.5" cy="260.65" fx="902.5" fy="260.65"><stop offset="0%" stop-color="#d9edf7" stop-opacity="1"></stop><stop offset="100%" stop-color="#d9edf7" stop-opacity="1"></stop></radialGradient><radialGradient id="rr-2-xr___169.85_902.5_260.65__rgba_238_192_21_1__0-rgba_238_192_21_1__100" r="169.85" cx="902.5" cy="260.65" fx="902.5" fy="260.65"><stop offset="0%" stop-color="#eec015" stop-opacity="1"></stop><stop offset="100%" stop-color="#eec015" stop-opacity="1"></stop></radialGradient><radialGradient id="rr-2-xr___169.85_902.5_260.65__rgba_153_225_100_1__0-rgba_153_225_100_1__100" r="169.85" cx="902.5" cy="260.65" fx="902.5" fy="260.65"><stop offset="0%" stop-color="#99e164" stop-opacity="1"></stop><stop offset="100%" stop-color="#99e164" stop-opacity="1"></stop></radialGradient><radialGradient id="rr-2-xr___169.85_902.5_260.65__rgba_170_170_170_1__0-rgba_170_170_170_1__100" r="169.85" cx="902.5" cy="260.65" fx="902.5" fy="260.65"><stop offset="0%" stop-color="#aaaaaa" stop-opacity="1"></stop><stop offset="100%" stop-color="#aaaaaa" stop-opacity="1"></stop></radialGradient></defs><g class="raphael-group-3-parentgroup"><g class="raphael-group-4-background"><rect x="0" y="0" width="1805" height="550" stroke="none" fill-opacity="0.5" fill="#ffffff" ry="0" rx="0"></rect><rect x="0" y="0" width="1805" height="550" stroke="#767575" stroke-opacity="0.5" stroke-width="0" stroke-dasharray="none" fill="none" ry="0" rx="0"></rect></g><g class="raphael-group-31-canvas"></g><g class="raphael-group-5-axisbottom"></g><g class="raphael-group-33-axisReferenceVisualsFloor" clip-path="url('#rr-41D86392-727E-484A-817E-91BDC728B08B')"></g><g class="raphael-group-32-axisReferenceVisualsBottom"></g><g class="raphael-group-6-belowplot"></g><g class="raphael-group-34-crossline"></g><g class="raphael-group-35-crosslineBottom"></g><g class="raphael-group-38-axisReferenceVisualsMiddle" clip-path="url('#rr-9D5E199D-4E05-4874-9DA7-001D34786741')"></g><g class="raphael-group-40-quadrant"></g><g class="raphael-group-7-plots"><g class="raphael-group-42-column-shadow-group"></g><g class="raphael-group-43-column"></g><g class="raphael-group-44-area-shadow-group"></g><g class="raphael-group-45-area"></g><g class="raphael-group-46-line-shadow-group"></g><g class="raphael-group-47-line"></g><g class="raphael-group-48-default-shadow-group"></g><g class="raphael-group-49-default"></g></g><g class="raphael-group-8-scrollbar-container"></g><g class="raphael-group-9-axistop"></g><g class="raphael-group-10-sumlabels fusioncharts-datalabels"></g><g class="raphael-group-39-axisReferenceVisualsTop"></g><g class="raphael-group-41-axisReferenceVisualsCeil"></g><g class="raphael-group-11-datalabel" font-family="Verdana,sans" font-size="10px" font-weight="normal" font-style="normal" style="font-family: verdana, sans; font-size: 10px; font-weight: normal; font-style: normal;"><g class="raphael-group-37-canvasdatalabel"></g><g class="raphael-group-113-pie"><g class="raphael-group-114-pie-plot"><g class="raphael-group-117-plot-shadows"></g><g class="raphael-group-116-plots"><path d="M980.8510719430609,109.95118771080743A169.85,169.85,0,0,1,1072.35,260.65L902.5,260.65Z" fill="url('#rr-2-xr___169.85_902.5_260.65__rgba_105_195_156_1__0-rgba_105_195_156_1__100')" stroke="#daf0e7" stroke-linecap="round" fill-opacity="1" stroke-width="0" stroke-opacity="1" stroke-dasharray="none" transform="matrix(1,0,0,1,0,0)"></path><path d="M819.6700773383377,112.36572432701081A169.85,169.85,0,0,1,980.8510719430609,109.95118771080743L902.5,260.65Z" fill="url('#rr-2-xr___169.85_902.5_260.65__rgba_0_59_48_1__0-rgba_0_59_48_1__100')" stroke="#c0cecc" stroke-linecap="round" fill-opacity="1" stroke-width="0" stroke-opacity="1" stroke-dasharray="none" transform="matrix(1,0,0,1,0,0)"></path><path d="M738.0998454841641,217.96965680586328A169.85,169.85,0,0,1,819.6700773383377,112.36572432701081L902.5,260.65Z" fill="url('#rr-2-xr___169.85_902.5_260.65__rgba_0_68_204_1__0-rgba_0_68_204_1__100')" stroke="#c0d1f3" stroke-linecap="round" fill-opacity="1" stroke-width="0" stroke-opacity="1" stroke-dasharray="none" transform="matrix(1,0,0,1,0,0)"></path><path d="M745.3279247490827,325.03913931184354A169.85,169.85,0,0,1,738.0998454841641,217.96965680586328L902.5,260.65Z" fill="url('#rr-2-xr___169.85_902.5_260.65__rgba_255_152_0_1__0-rgba_255_152_0_1__100')" stroke="#ffe6c0" stroke-linecap="round" fill-opacity="1" stroke-width="0" stroke-opacity="1" stroke-dasharray="none" transform="matrix(1,0,0,1,0,0)"></path><path d="M809.5122988829706,402.7848301471881A169.85,169.85,0,0,1,745.3279247490827,325.03913931184354L902.5,260.65Z" fill="url('#rr-2-xr___169.85_902.5_260.65__rgba_240_185_11_1__0-rgba_240_185_11_1__100')" stroke="#fceec2" stroke-linecap="round" fill-opacity="1" stroke-width="0" stroke-opacity="1" stroke-dasharray="none" transform="matrix(1,0,0,1,0,0)"></path><path d="M897.6578722164223,430.43096565436156A169.85,169.85,0,0,1,809.5122988829706,402.7848301471881L902.5,260.65Z" fill="url('#rr-2-xr___169.85_902.5_260.65__rgba_60_120_194_1__0-rgba_60_120_194_1__100')" stroke="#cfdef0" stroke-linecap="round" fill-opacity="1" stroke-width="0" stroke-opacity="1" stroke-dasharray="none" transform="matrix(1,0,0,1,0,0)"></path><path d="M958.15018725127,421.1245436475785A169.85,169.85,0,0,1,897.6578722164223,430.43096565436156L902.5,260.65Z" fill="url('#rr-2-xr___169.85_902.5_260.65__rgba_66_156_166_1__0-rgba_66_156_166_1__100')" stroke="#d0e7e9" stroke-linecap="round" fill-opacity="1" stroke-width="0" stroke-opacity="1" stroke-dasharray="none" transform="matrix(1,0,0,1,0,0)"></path><path d="M981.8631225355906,410.818296525601A169.85,169.85,0,0,1,958.15018725127,421.1245436475785L902.5,260.65Z" fill="url('#rr-2-xr___169.85_902.5_260.65__rgba_0_51_153_1__0-rgba_0_51_153_1__100')" stroke="#c0cce6" stroke-linecap="round" fill-opacity="1" stroke-width="0" stroke-opacity="1" stroke-dasharray="none" transform="matrix(1,0,0,1,0,0)"></path><path d="M988.2431220351181,407.2690285183709A169.85,169.85,0,0,1,981.8631225355906,410.818296525601L902.5,260.65Z" fill="url('#rr-2-xr___169.85_902.5_260.65__rgba_5_24_57_1__0-rgba_5_24_57_1__100')" stroke="#c1c6ce" stroke-linecap="round" fill-opacity="1" stroke-width="0" stroke-opacity="1" stroke-dasharray="none" transform="matrix(1,0,0,1,0,0)"></path><path d="M990.1990239040229,406.10756668623884A169.85,169.85,0,0,1,988.2431220351181,407.2690285183709L902.5,260.65Z" fill="url('#rr-2-xr___169.85_902.5_260.65__rgba_191_215_249_1__0-rgba_191_215_249_1__100')" stroke="#eff5fe" stroke-linecap="round" fill-opacity="1" stroke-width="0" stroke-opacity="1" stroke-dasharray="none" transform="matrix(1,0,0,1,0,0)"></path><path d="M991.1065053322573,405.5565551064018A169.85,169.85,0,0,1,990.1990239040229,406.10756668623884L902.5,260.65Z" fill="url('#rr-2-xr___169.85_902.5_260.65__rgba_0_150_136_1__0-rgba_0_150_136_1__100')" stroke="#c0e5e2" stroke-linecap="round" fill-opacity="1" stroke-width="0" stroke-opacity="1" stroke-dasharray="none" transform="matrix(1,0,0,1,0,0)"></path><path d="M991.8062653996406,405.1263422168797A169.85,169.85,0,0,1,991.1065053322573,405.5565551064018L902.5,260.65Z" fill="url('#rr-2-xr___169.85_902.5_260.65__rgba_30_175_255_1__0-rgba_30_175_255_1__100')" stroke="#c7ebff" stroke-linecap="round" fill-opacity="1" stroke-width="0" stroke-opacity="1" stroke-dasharray="none" transform="matrix(1,0,0,1,0,0)"></path><path d="M992.1661113620248,404.90328756466164A169.85,169.85,0,0,1,991.8062653996406,405.1263422168797L902.5,260.65Z" fill="url('#rr-2-xr___169.85_902.5_260.65__rgba_200_16_46_1__0-rgba_200_16_46_1__100')" stroke="#f2c4cb" stroke-linecap="round" fill-opacity="1" stroke-width="0" stroke-opacity="1" stroke-dasharray="none" transform="matrix(1,0,0,1,0,0)"></path><path d="M992.4742214846575,404.7113132254103A169.85,169.85,0,0,1,992.1661113620248,404.90328756466164L902.5,260.65Z" fill="url('#rr-2-xr___169.85_902.5_260.65__rgba_46_167_223_1__0-rgba_46_167_223_1__100')" stroke="#cbe9f7" stroke-linecap="round" fill-opacity="1" stroke-width="0" stroke-opacity="1" stroke-dasharray="none" transform="matrix(1,0,0,1,0,0)"></path><path d="M992.6478459633959,404.6027296308057A169.85,169.85,0,0,1,992.4742214846575,404.7113132254103L902.5,260.65Z" fill="url('#rr-2-xr___169.85_902.5_260.65__rgba_229_138_46_1__0-rgba_229_138_46_1__100')" stroke="#f9e2cb" stroke-linecap="round" fill-opacity="1" stroke-width="0" stroke-opacity="1" stroke-dasharray="none" transform="matrix(1,0,0,1,0,0)"></path><path d="M992.7968030971067,404.509340504683A169.85,169.85,0,0,1,992.6478459633959,404.6027296308057L902.5,260.65Z" fill="url('#rr-2-xr___169.85_902.5_260.65__rgba_140_70_255_1__0-rgba_140_70_255_1__100')" stroke="#e3d1ff" stroke-linecap="round" fill-opacity="1" stroke-width="0" stroke-opacity="1" stroke-dasharray="none" transform="matrix(1,0,0,1,0,0)"></path><path d="M992.8519839435801,404.4746901524875A169.85,169.85,0,0,1,992.7968030971067,404.509340504683L902.5,260.65Z" fill="url('#rr-2-xr___169.85_902.5_260.65__rgba_217_237_247_1__0-rgba_217_237_247_1__100')" stroke="#f6fbfd" stroke-linecap="round" fill-opacity="1" stroke-width="0" stroke-opacity="1" stroke-dasharray="none" transform="matrix(1,0,0,1,0,0)"></path><path d="M992.8913906935736,404.4499269418512A169.85,169.85,0,0,1,992.8519839435801,404.4746901524875L902.5,260.65Z" fill="url('#rr-2-xr___169.85_902.5_260.65__rgba_238_192_21_1__0-rgba_238_192_21_1__100')" stroke="#fbf0c5" stroke-linecap="round" fill-opacity="1" stroke-width="0" stroke-opacity="1" stroke-dasharray="none" transform="matrix(1,0,0,1,0,0)"></path><path d="M992.9022816992712,404.4430803744242A169.85,169.85,0,0,1,992.8913906935736,404.4499269418512L902.5,260.65Z" fill="url('#rr-2-xr___169.85_902.5_260.65__rgba_153_225_100_1__0-rgba_153_225_100_1__100')" stroke="#e6f8d9" stroke-linecap="round" fill-opacity="1" stroke-width="0" stroke-opacity="1" stroke-dasharray="none" transform="matrix(1,0,0,1,0,0)"></path><path d="M1072.35,260.65000000000015A169.85,169.85,0,0,1,992.9022816992712,404.4430803744242L902.5,260.65Z" fill="url('#rr-2-xr___169.85_902.5_260.65__rgba_170_170_170_1__0-rgba_170_170_170_1__100')" stroke="#eaeaea" stroke-linecap="round" fill-opacity="1" stroke-width="0" stroke-opacity="1" stroke-dasharray="none" transform="matrix(1,0,0,1,0,0)"></path></g></g><g class="raphael-group-115-pie-label"><g class="raphael-group-118-labels" font-family="Verdana,sans" font-size="10px" font-weight="normal" font-style="normal" style="border-radius: 0px; font-family: verdana, sans; font-size: 10px; font-weight: normal; font-style: normal;"><text fill-opacity="1" fill="#555555" text-anchor="start" x="932.4040478194881" stroke="none" y="447" style="text-anchor: start;">Slush, 5.77%</text><path d="M928.3266741831044,428.5249695476957L922.4040478194881,444.4252741268518,927.4040478194881,444.4252741268518" stroke-width="0.7" stroke="#767575" stroke-opacity="1" fill="none" stroke-linecap="round"></path><text fill-opacity="1" fill="#555555" text-anchor="start" x="979.7317116015179" stroke="none" y="436" style="text-anchor: start;">SBI Crypto, 2.43%</text><path d="M970.2030511671041,416.42329476731396L969.7317116015179,432.8400678178922,974.7317116015179,432.8400678178922" stroke-width="0.7" stroke="#767575" stroke-opacity="1" fill="none" stroke-linecap="round"></path><text fill-opacity="1" fill="#555555" text-anchor="start" x="1001.178658093295" stroke="none" y="426" style="text-anchor: start;">OKEx, 0.68%</text><path d="M985.0721946232959,409.0779460717979L991.178658093295,422.8400678178922,996.178658093295,422.8400678178922" stroke-width="0.7" stroke="#767575" stroke-opacity="1" fill="none" stroke-linecap="round"></path><text fill-opacity="1" fill="#555555" text-anchor="start" x="1017.4176141436002" stroke="none" y="416" style="text-anchor: start;">Mining-Dutch, 0.21%</text><path d="M989.2230173909467,406.69157200814277L1007.4176141436002,412.8400678178922,1012.4176141436002,412.8400678178922" stroke-width="0.7" stroke="#767575" stroke-opacity="1" fill="none" stroke-linecap="round"></path><text fill-opacity="1" fill="#555555" text-anchor="start" x="1030.6164980599374" stroke="none" y="406" style="text-anchor: start;">CKPOOL, 0.1%</text><path d="M990.6531951392658,405.83276993754635L1020.6164980599375,402.8400678178922,1025.6164980599374,402.8400678178922" stroke-width="0.7" stroke="#767575" stroke-opacity="1" fill="none" stroke-linecap="round"></path><text fill-opacity="1" fill="#555555" text-anchor="start" x="1041.7103264847708" stroke="none" y="396" style="text-anchor: start;">TAAL, 0.08%</text><path d="M991.4566454412361,405.341871685462L1031.7103264847708,392.8400678178922,1036.7103264847708,392.8400678178922" stroke-width="0.7" stroke="#767575" stroke-opacity="1" fill="none" stroke-linecap="round"></path><text fill-opacity="1" fill="#555555" text-anchor="start" x="1051.2051182424748" stroke="none" y="386" style="text-anchor: start;">SVPool, 0.04%</text><path d="M991.9862578794887,405.01492701042605L1041.2051182424748,382.8400678178922,1046.2051182424748,382.8400678178922" stroke-width="0.7" stroke="#767575" stroke-opacity="1" fill="none" stroke-linecap="round"></path><text fill-opacity="1" fill="#555555" text-anchor="start" x="1059.4112357276215" stroke="none" y="376" style="text-anchor: start;">Poolin, 0.03%</text><path d="M992.3202177121245,404.80738271121095L1049.4112357276215,372.8400678178922,1054.4112357276215,372.8400678178922" stroke-width="0.7" stroke="#767575" stroke-opacity="1" fill="none" stroke-linecap="round"></path><text fill-opacity="1" fill="#555555" text-anchor="start" x="1066.5347770452329" stroke="none" y="366" style="text-anchor: start;">Prohashing, 0.02%</text><path d="M992.5610500884791,404.6570475947634L1056.5347770452329,362.8400678178922,1061.5347770452329,362.8400678178922" stroke-width="0.7" stroke="#767575" stroke-opacity="1" fill="none" stroke-linecap="round"></path><text fill-opacity="1" fill="#555555" text-anchor="start" x="1072.7202043929929" stroke="none" y="356" style="text-anchor: start;">HathorMM, 0.02%</text><path d="M992.7223366136358,404.55605434093377L1062.7202043929929,352.8400678178922,1067.7202043929929,352.8400678178922" stroke-width="0.7" stroke="#767575" stroke-opacity="1" fill="none" stroke-linecap="round"></path><text fill-opacity="1" fill="#555555" text-anchor="start" x="1078.0726887264027" stroke="none" y="346" style="text-anchor: start;">solomining.io, 0.01%</text><path d="M992.8243951819195,404.4920179746531L1068.0726887264027,342.8400678178922,1073.0726887264027,342.8400678178922" stroke-width="0.7" stroke="#767575" stroke-opacity="1" fill="none" stroke-linecap="round"></path><text fill-opacity="1" fill="#555555" text-anchor="start" x="1082.6708453538622" stroke="none" y="336" style="text-anchor: start;">P2Pool, 0%</text><path d="M992.8716881667636,404.4623098969251L1072.6708453538622,332.8400678178922,1077.6708453538622,332.8400678178922" stroke-width="0.7" stroke="#767575" stroke-opacity="1" fill="none" stroke-linecap="round"></path><text fill-opacity="1" fill="#555555" text-anchor="start" x="1086.574460978071" stroke="none" y="326" style="text-anchor: start;">Zergpool, 0%</text><path d="M992.8968362612413,404.44650376124696L1076.574460978071,322.8400678178922,1081.574460978071,322.8400678178922" stroke-width="0.7" stroke="#767575" stroke-opacity="1" fill="none" stroke-linecap="round"></path><text fill-opacity="1" fill="#555555" text-anchor="start" x="1089.8294090701365" stroke="none" y="316" style="text-anchor: start;">Other, 16.07%</text><path d="M1051.1671618862438,342.790717532107L1079.8294090701365,312.8400678178922,1084.8294090701365,312.8400678178922" stroke-width="0.7" stroke="#767575" stroke-opacity="1" fill="none" stroke-linecap="round"></path><text fill-opacity="1" fill="#555555" text-anchor="end" x="837.18042725719" stroke="none" y="440" style="text-anchor: end;">BTC.com, 8.77%</text><path d="M851.6694377583647,422.71565472733334L847.18042725719,437.0281941498238,842.18042725719,437.0281941498238" stroke-width="0.7" stroke="#767575" stroke-opacity="1" fill="none" stroke-linecap="round"></path><text fill-opacity="1" fill="#555555" text-anchor="end" x="749.9514213721422" stroke="none" y="381" style="text-anchor: end;">Binance, 9.59%</text><path d="M771.5187931839781,368.78392604089845L759.9514213721422,378.33358097533164,754.9514213721422,378.33358097533164" stroke-width="0.7" stroke="#767575" stroke-opacity="1" fill="none" stroke-linecap="round"></path><text fill-opacity="1" fill="#555555" text-anchor="end" x="708.0697807564513" stroke="none" y="276" style="text-anchor: end;">ViaBTC, 10.23%</text><path d="M733.0357168595253,272.0902464870748L718.0697807564513,273.1005714638551,713.0697807564513,273.1005714638551" stroke-width="0.7" stroke="#767575" stroke-opacity="1" fill="none" stroke-linecap="round"></path><text fill-opacity="1" fill="#555555" text-anchor="end" x="889.7312056817992" stroke="none" y="79" style="text-anchor: end;">Foundry USA Pool, 15.74%</text><path d="M899.95588469058,90.81905471236291L899.7312056817992,75.82073749532108,894.7312056817992,75.82073749532108" stroke-width="0.7" stroke="#767575" stroke-opacity="1" fill="none" stroke-linecap="round"></path><text fill-opacity="1" fill="#555555" text-anchor="end" x="746.2089818112383" stroke="none" y="151" style="text-anchor: end;">F2Pool, 12.85%</text><path d="M768.0800409014813,156.8217904615871L756.2089818112383,147.65238720532454,751.2089818112383,147.65238720532454" stroke-width="0.7" stroke="#767575" stroke-opacity="1" fill="none" stroke-linecap="round"></path><text fill-opacity="1" fill="#555555" text-anchor="start" x="1070.5059741856955" stroke="none" y="168" style="text-anchor: start;">AntPool, 17.37%</text><path d="M1047.6842830156365,172.4992968534251L1060.5059741856955,164.71442462970637,1065.5059741856955,164.71442462970637" stroke-width="0.7" stroke="#767575" stroke-opacity="1" fill="none" stroke-linecap="round"></path></g><g class="raphael-group-119-connector-shadows"></g><g class="raphael-group-120-anchor-shadows"></g></g></g></g><g class="raphael-group-36-crosslineTop"></g><g class="raphael-group-12-aboveplot"></g><g class="raphael-group-13-caption"><text fill-opacity="1" fill="#555555" x="902.5" text-anchor="middle" stroke="none" y="27" font-family="Verdana,sans" font-size="13px" font-weight="bold" style="text-anchor: middle; font-family: verdana, sans; font-size: 13px; font-weight: bold;">Total Bitcoin Hash Rate by Mining Pool (last 7 days, all chains)</text><text fill-opacity="1" fill="#555555" x="902.5" text-anchor="middle" stroke="none" y="43" font-family="Verdana,sans" font-size="11px" font-weight="bold" style="text-anchor: middle; font-family: verdana, sans; font-size: 11px; font-weight: bold;">coin.dance</text></g><g class="raphael-group-14-chartdefault"></g><g class="raphael-group-15-chartdefault-shadow"></g><g class="raphael-group-16-tracker"></g><g class="raphael-group-17-logo"></g><g class="raphael-group-18-selectorGroup"></g><g class="raphael-group-19-legend"><g class="raphael-group-50-legendGroup" transform="matrix(1,0,0,1,472.5,476.5)"><rect x="0" y="0" width="860" height="59" ry="0" rx="0" stroke="#545454" stroke-opacity="0" stroke-width="1" fill-opacity="0.2" fill="#cccccc" style="cursor: default;"></rect><g class="raphael-group-52-item" transform="matrix(1,0,0,1,0,0)"><text fill-opacity="1" fill="#555555" font-family="Verdana,sans" font-size="10px" text-anchor="start" font-weight="normal" x="23" stroke="none" y="16" style="font-family: verdana, sans; cursor: pointer; font-size: 10px; text-anchor: start; font-weight: normal;">AntPool</text><path opacity="1" d="M13.5,11.5L13.5,7.55A3.95,3.95,0,0,1,17.45,11.5ZM11.5,13.5L11.5,8.55A4.95,4.95,0,1,0,16.45,13.5Z" stroke-width="0.5" stroke="#daf0e7" stroke-opacity="1" fill="#69c39c" stroke-linecap="round" style="cursor: pointer;"></path><rect opacity="1" x="4" y="4" width="59.7734375" height="17" ry="0" rx="0" fill-opacity="0.000001" fill="#c0c0c0" stroke-width="1" stroke="none" style="cursor: pointer;"></rect><text fill-opacity="1" fill="#555555" font-family="Verdana,sans" font-size="10px" text-anchor="start" font-weight="normal" x="147.2226841517857" stroke="none" y="16" style="font-family: verdana, sans; cursor: pointer; font-size: 10px; text-anchor: start; font-weight: normal;">Foundry USA Pool</text><path opacity="1" d="M137.7226841517857,11.5L137.7226841517857,7.55A3.95,3.95,0,0,1,141.6726841517857,11.5ZM135.7226841517857,13.5L135.7226841517857,8.55A4.95,4.95,0,1,0,140.6726841517857,13.5Z" stroke-width="0.5" stroke="#c0cecc" stroke-opacity="1" fill="#003b30" stroke-linecap="round" style="cursor: pointer;"></path><rect opacity="1" x="128.2226841517857" y="4" width="111.23828125" height="17" ry="0" rx="0" fill-opacity="0.000001" fill="#c0c0c0" stroke-width="1" stroke="none" style="cursor: pointer;"></rect><text fill-opacity="1" fill="#555555" font-family="Verdana,sans" font-size="10px" text-anchor="start" font-weight="normal" x="271.4453683035714" stroke="none" y="16" style="font-family: verdana, sans; cursor: pointer; font-size: 10px; text-anchor: start; font-weight: normal;">F2Pool</text><path opacity="1" d="M261.9453683035714,11.5L261.9453683035714,7.55A3.95,3.95,0,0,1,265.8953683035714,11.5ZM259.9453683035714,13.5L259.9453683035714,8.55A4.95,4.95,0,1,0,264.8953683035714,13.5Z" stroke-width="0.5" stroke="#c0d1f3" stroke-opacity="1" fill="#0044cc" stroke-linecap="round" style="cursor: pointer;"></path><rect opacity="1" x="252.4453683035714" y="4" width="54.7734375" height="17" ry="0" rx="0" fill-opacity="0.000001" fill="#c0c0c0" stroke-width="1" stroke="none" style="cursor: pointer;"></rect><text fill-opacity="1" fill="#555555" font-family="Verdana,sans" font-size="10px" text-anchor="start" font-weight="normal" x="395.6680524553571" stroke="none" y="16" style="font-family: verdana, sans; cursor: pointer; font-size: 10px; text-anchor: start; font-weight: normal;">ViaBTC</text><path opacity="1" d="M386.1680524553571,11.5L386.1680524553571,7.55A3.95,3.95,0,0,1,390.1180524553571,11.5ZM384.1680524553571,13.5L384.1680524553571,8.55A4.95,4.95,0,1,0,389.1180524553571,13.5Z" stroke-width="0.5" stroke="#ffe6c0" stroke-opacity="1" fill="#ff9800" stroke-linecap="round" style="cursor: pointer;"></path><rect opacity="1" x="376.6680524553571" y="4" width="57.29296875" height="17" ry="0" rx="0" fill-opacity="0.000001" fill="#c0c0c0" stroke-width="1" stroke="none" style="cursor: pointer;"></rect><text fill-opacity="1" fill="#555555" font-family="Verdana,sans" font-size="10px" text-anchor="start" font-weight="normal" x="519.8907366071428" stroke="none" y="16" style="font-family: verdana, sans; cursor: pointer; font-size: 10px; text-anchor: start; font-weight: normal;">Binance</text><path opacity="1" d="M510.3907366071428,11.5L510.3907366071428,7.55A3.95,3.95,0,0,1,514.3407366071428,11.5ZM508.3907366071428,13.5L508.3907366071428,8.55A4.95,4.95,0,1,0,513.3407366071428,13.5Z" stroke-width="0.5" stroke="#fceec2" stroke-opacity="1" fill="#f0b90b" stroke-linecap="round" style="cursor: pointer;"></path><rect opacity="1" x="500.8907366071428" y="4" width="61.4287109375" height="17" ry="0" rx="0" fill-opacity="0.000001" fill="#c0c0c0" stroke-width="1" stroke="none" style="cursor: pointer;"></rect><text fill-opacity="1" fill="#555555" font-family="Verdana,sans" font-size="10px" text-anchor="start" font-weight="normal" x="644.1134207589286" stroke="none" y="16" style="font-family: verdana, sans; cursor: pointer; font-size: 10px; text-anchor: start; font-weight: normal;">BTC.com</text><path opacity="1" d="M634.6134207589286,11.5L634.6134207589286,7.55A3.95,3.95,0,0,1,638.5634207589286,11.5ZM632.6134207589286,13.5L632.6134207589286,8.55A4.95,4.95,0,1,0,637.5634207589286,13.5Z" stroke-width="0.5" stroke="#cfdef0" stroke-opacity="1" fill="#3c78c2" stroke-linecap="round" style="cursor: pointer;"></path><rect opacity="1" x="625.1134207589286" y="4" width="66.1552734375" height="17" ry="0" rx="0" fill-opacity="0.000001" fill="#c0c0c0" stroke-width="1" stroke="none" style="cursor: pointer;"></rect><text fill-opacity="1" fill="#555555" font-family="Verdana,sans" font-size="10px" text-anchor="start" font-weight="normal" x="768.3361049107143" stroke="none" y="16" style="font-family: verdana, sans; cursor: pointer; font-size: 10px; text-anchor: start; font-weight: normal;">Slush</text><path opacity="1" d="M758.8361049107143,11.5L758.8361049107143,7.55A3.95,3.95,0,0,1,762.7861049107144,11.5ZM756.8361049107143,13.5L756.8361049107143,8.55A4.95,4.95,0,1,0,761.7861049107144,13.5Z" stroke-width="0.5" stroke="#d0e7e9" stroke-opacity="1" fill="#429ca6" stroke-linecap="round" style="cursor: pointer;"></path><rect opacity="1" x="749.3361049107143" y="4" width="49.4462890625" height="17" ry="0" rx="0" fill-opacity="0.000001" fill="#c0c0c0" stroke-width="1" stroke="none" style="cursor: pointer;"></rect><text fill-opacity="1" fill="#555555" font-family="Verdana,sans" font-size="10px" text-anchor="start" font-weight="normal" x="23" stroke="none" y="33" style="font-family: verdana, sans; cursor: pointer; font-size: 10px; text-anchor: start; font-weight: normal;">SBI Crypto</text><path opacity="1" d="M13.5,28.5L13.5,24.55A3.95,3.95,0,0,1,17.45,28.5ZM11.5,30.5L11.5,25.55A4.95,4.95,0,1,0,16.45,30.5Z" stroke-width="0.5" stroke="#c0cce6" stroke-opacity="1" fill="#003399" stroke-linecap="round" style="cursor: pointer;"></path><rect opacity="1" x="4" y="21" width="76.82421875" height="17" ry="0" rx="0" fill-opacity="0.000001" fill="#c0c0c0" stroke-width="1" stroke="none" style="cursor: pointer;"></rect><text fill-opacity="1" fill="#555555" font-family="Verdana,sans" font-size="10px" text-anchor="start" font-weight="normal" x="147.2226841517857" stroke="none" y="33" style="font-family: verdana, sans; cursor: pointer; font-size: 10px; text-anchor: start; font-weight: normal;">OKEx</text><path opacity="1" d="M137.7226841517857,28.5L137.7226841517857,24.55A3.95,3.95,0,0,1,141.6726841517857,28.5ZM135.7226841517857,30.5L135.7226841517857,25.55A4.95,4.95,0,1,0,140.6726841517857,30.5Z" stroke-width="0.5" stroke="#c1c6ce" stroke-opacity="1" fill="#051839" stroke-linecap="round" style="cursor: pointer;"></path><rect opacity="1" x="128.2226841517857" y="21" width="49.041015625" height="17" ry="0" rx="0" fill-opacity="0.000001" fill="#c0c0c0" stroke-width="1" stroke="none" style="cursor: pointer;"></rect><text fill-opacity="1" fill="#555555" font-family="Verdana,sans" font-size="10px" text-anchor="start" font-weight="normal" x="271.4453683035714" stroke="none" y="33" style="font-family: verdana, sans; cursor: pointer; font-size: 10px; text-anchor: start; font-weight: normal;">Mining-Dutch</text><path opacity="1" d="M261.9453683035714,28.5L261.9453683035714,24.55A3.95,3.95,0,0,1,265.8953683035714,28.5ZM259.9453683035714,30.5L259.9453683035714,25.55A4.95,4.95,0,1,0,264.8953683035714,30.5Z" stroke-width="0.5" stroke="#eff5fe" stroke-opacity="1" fill="#bfd7f9" stroke-linecap="round" style="cursor: pointer;"></path><rect opacity="1" x="252.4453683035714" y="21" width="88.85546875" height="17" ry="0" rx="0" fill-opacity="0.000001" fill="#c0c0c0" stroke-width="1" stroke="none" style="cursor: pointer;"></rect><text fill-opacity="1" fill="#555555" font-family="Verdana,sans" font-size="10px" text-anchor="start" font-weight="normal" x="395.6680524553571" stroke="none" y="33" style="font-family: verdana, sans; cursor: pointer; font-size: 10px; text-anchor: start; font-weight: normal;">CKPOOL</text><path opacity="1" d="M386.1680524553571,28.5L386.1680524553571,24.55A3.95,3.95,0,0,1,390.1180524553571,28.5ZM384.1680524553571,30.5L384.1680524553571,25.55A4.95,4.95,0,1,0,389.1180524553571,30.5Z" stroke-width="0.5" stroke="#c0e5e2" stroke-opacity="1" fill="#009688" stroke-linecap="round" style="cursor: pointer;"></path><rect opacity="1" x="376.6680524553571" y="21" width="63.25" height="17" ry="0" rx="0" fill-opacity="0.000001" fill="#c0c0c0" stroke-width="1" stroke="none" style="cursor: pointer;"></rect><text fill-opacity="1" fill="#555555" font-family="Verdana,sans" font-size="10px" text-anchor="start" font-weight="normal" x="519.8907366071428" stroke="none" y="33" style="font-family: verdana, sans; cursor: pointer; font-size: 10px; text-anchor: start; font-weight: normal;">TAAL</text><path opacity="1" d="M510.3907366071428,28.5L510.3907366071428,24.55A3.95,3.95,0,0,1,514.3407366071428,28.5ZM508.3907366071428,30.5L508.3907366071428,25.55A4.95,4.95,0,1,0,513.3407366071428,30.5Z" stroke-width="0.5" stroke="#c7ebff" stroke-opacity="1" fill="#1eafff" stroke-linecap="round" style="cursor: pointer;"></path><rect opacity="1" x="500.8907366071428" y="21" width="46.814453125" height="17" ry="0" rx="0" fill-opacity="0.000001" fill="#c0c0c0" stroke-width="1" stroke="none" style="cursor: pointer;"></rect><text fill-opacity="1" fill="#555555" font-family="Verdana,sans" font-size="10px" text-anchor="start" font-weight="normal" x="644.1134207589286" stroke="none" y="33" style="font-family: verdana, sans; cursor: pointer; font-size: 10px; text-anchor: start; font-weight: normal;">SVPool</text><path opacity="1" d="M634.6134207589286,28.5L634.6134207589286,24.55A3.95,3.95,0,0,1,638.5634207589286,28.5ZM632.6134207589286,30.5L632.6134207589286,25.55A4.95,4.95,0,1,0,637.5634207589286,30.5Z" stroke-width="0.5" stroke="#f2c4cb" stroke-opacity="1" fill="#c8102e" stroke-linecap="round" style="cursor: pointer;"></path><rect opacity="1" x="625.1134207589286" y="21" width="56.3408203125" height="17" ry="0" rx="0" fill-opacity="0.000001" fill="#c0c0c0" stroke-width="1" stroke="none" style="cursor: pointer;"></rect><text fill-opacity="1" fill="#555555" font-family="Verdana,sans" font-size="10px" text-anchor="start" font-weight="normal" x="768.3361049107143" stroke="none" y="33" style="font-family: verdana, sans; cursor: pointer; font-size: 10px; text-anchor: start; font-weight: normal;">Poolin</text><path opacity="1" d="M758.8361049107143,28.5L758.8361049107143,24.55A3.95,3.95,0,0,1,762.7861049107144,28.5ZM756.8361049107143,30.5L756.8361049107143,25.55A4.95,4.95,0,1,0,761.7861049107144,30.5Z" stroke-width="0.5" stroke="#cbe9f7" stroke-opacity="1" fill="#2ea7df" stroke-linecap="round" style="cursor: pointer;"></path><rect opacity="1" x="749.3361049107143" y="21" width="51.7412109375" height="17" ry="0" rx="0" fill-opacity="0.000001" fill="#c0c0c0" stroke-width="1" stroke="none" style="cursor: pointer;"></rect><text fill-opacity="1" fill="#555555" font-family="Verdana,sans" font-size="10px" text-anchor="start" font-weight="normal" x="23" stroke="none" y="50" style="font-family: verdana, sans; cursor: pointer; font-size: 10px; text-anchor: start; font-weight: normal;">Prohashing</text><path opacity="1" d="M13.5,45.5L13.5,41.55A3.95,3.95,0,0,1,17.45,45.5ZM11.5,47.5L11.5,42.55A4.95,4.95,0,1,0,16.45,47.5Z" stroke-width="0.5" stroke="#f9e2cb" stroke-opacity="1" fill="#e58a2e" stroke-linecap="round" style="cursor: pointer;"></path><rect opacity="1" x="4" y="38" width="77.5419921875" height="17" ry="0" rx="0" fill-opacity="0.000001" fill="#c0c0c0" stroke-width="1" stroke="none" style="cursor: pointer;"></rect><text fill-opacity="1" fill="#555555" font-family="Verdana,sans" font-size="10px" text-anchor="start" font-weight="normal" x="147.2226841517857" stroke="none" y="50" style="font-family: verdana, sans; cursor: pointer; font-size: 10px; text-anchor: start; font-weight: normal;">HathorMM</text><path opacity="1" d="M137.7226841517857,45.5L137.7226841517857,41.55A3.95,3.95,0,0,1,141.6726841517857,45.5ZM135.7226841517857,47.5L135.7226841517857,42.55A4.95,4.95,0,1,0,140.6726841517857,47.5Z" stroke-width="0.5" stroke="#e3d1ff" stroke-opacity="1" fill="#8c46ff" stroke-linecap="round" style="cursor: pointer;"></path><rect opacity="1" x="128.2226841517857" y="38" width="72.9814453125" height="17" ry="0" rx="0" fill-opacity="0.000001" fill="#c0c0c0" stroke-width="1" stroke="none" style="cursor: pointer;"></rect><text fill-opacity="1" fill="#555555" font-family="Verdana,sans" font-size="10px" text-anchor="start" font-weight="normal" x="271.4453683035714" stroke="none" y="50" style="font-family: verdana, sans; cursor: pointer; font-size: 10px; text-anchor: start; font-weight: normal;">solomining.io</text><path opacity="1" d="M261.9453683035714,45.5L261.9453683035714,41.55A3.95,3.95,0,0,1,265.8953683035714,45.5ZM259.9453683035714,47.5L259.9453683035714,42.55A4.95,4.95,0,1,0,264.8953683035714,47.5Z" stroke-width="0.5" stroke="#f6fbfd" stroke-opacity="1" fill="#d9edf7" stroke-linecap="round" style="cursor: pointer;"></path><rect opacity="1" x="252.4453683035714" y="38" width="88.6455078125" height="17" ry="0" rx="0" fill-opacity="0.000001" fill="#c0c0c0" stroke-width="1" stroke="none" style="cursor: pointer;"></rect><text fill-opacity="1" fill="#555555" font-family="Verdana,sans" font-size="10px" text-anchor="start" font-weight="normal" x="395.6680524553571" stroke="none" y="50" style="font-family: verdana, sans; cursor: pointer; font-size: 10px; text-anchor: start; font-weight: normal;">P2Pool</text><path opacity="1" d="M386.1680524553571,45.5L386.1680524553571,41.55A3.95,3.95,0,0,1,390.1180524553571,45.5ZM384.1680524553571,47.5L384.1680524553571,42.55A4.95,4.95,0,1,0,389.1180524553571,47.5Z" stroke-width="0.5" stroke="#fbf0c5" stroke-opacity="1" fill="#eec015" stroke-linecap="round" style="cursor: pointer;"></path><rect opacity="1" x="376.6680524553571" y="38" width="55.056640625" height="17" ry="0" rx="0" fill-opacity="0.000001" fill="#c0c0c0" stroke-width="1" stroke="none" style="cursor: pointer;"></rect><text fill-opacity="1" fill="#555555" font-family="Verdana,sans" font-size="10px" text-anchor="start" font-weight="normal" x="519.8907366071428" stroke="none" y="50" style="font-family: verdana, sans; cursor: pointer; font-size: 10px; text-anchor: start; font-weight: normal;">Zergpool</text><path opacity="1" d="M510.3907366071428,45.5L510.3907366071428,41.55A3.95,3.95,0,0,1,514.3407366071428,45.5ZM508.3907366071428,47.5L508.3907366071428,42.55A4.95,4.95,0,1,0,513.3407366071428,47.5Z" stroke-width="0.5" stroke="#e6f8d9" stroke-opacity="1" fill="#99e164" stroke-linecap="round" style="cursor: pointer;"></path><rect opacity="1" x="500.8907366071428" y="38" width="66.1259765625" height="17" ry="0" rx="0" fill-opacity="0.000001" fill="#c0c0c0" stroke-width="1" stroke="none" style="cursor: pointer;"></rect><text fill-opacity="1" fill="#555555" font-family="Verdana,sans" font-size="10px" text-anchor="start" font-weight="normal" x="644.1134207589286" stroke="none" y="50" style="font-family: verdana, sans; cursor: pointer; font-size: 10px; text-anchor: start; font-weight: normal;">Other</text><path opacity="1" d="M634.6134207589286,45.5L634.6134207589286,41.55A3.95,3.95,0,0,1,638.5634207589286,45.5ZM632.6134207589286,47.5L632.6134207589286,42.55A4.95,4.95,0,1,0,637.5634207589286,47.5Z" stroke-width="0.5" stroke="#eaeaea" stroke-opacity="1" fill="#aaaaaa" stroke-linecap="round" style="cursor: pointer;"></path><rect opacity="1" x="625.1134207589286" y="38" width="50.3642578125" height="17" ry="0" rx="0" fill-opacity="0.000001" fill="#c0c0c0" stroke-width="1" stroke="none" style="cursor: pointer;"></rect></g></g></g><g class="raphael-group-20-toolbar-master"><g class="raphael-group-25-toolbar"><rect fill-opacity="0" fill="#eeeeee" stroke="#eeeeee" stroke-opacity="0" stroke-width="1" width="22.25" height="22.25" x="1772.75" y="6" ry="0" rx="0"></rect><g class="raphael-group-27-button" stroke-linecap="round" style="display: none;"><rect x="1775.5" y="8.5" width="17" height="17" ry="2.3" rx="2.3" fill="#ffffff" stroke="#bbbbbb" stroke-width="1" stroke-opacity="1" fill-opacity="1"></rect><path d="M1779.8,17L1788.2,17M1779.8,20L1788.2,20M1779.8,14L1788.2,14" fill="#ffffff" stroke="#9a9a9a" stroke-linecap="round" fill-opacity="1" stroke-opacity="1" stroke-width="1"></path><rect x="1775.5" y="8.5" width="17" height="17" ry="2.3" rx="2.3" fill="#c0c0c0" stroke="#c0c0c0" fill-opacity="0.000001" stroke-opacity="0.000001" stroke-width="1" style="cursor: pointer;"></rect></g></g></g></g><rect x="0" y="0" width="10" height="30" ry="0" rx="0" fill="none" stroke="#000000" style="display: none;"></rect></svg>